<?xml version="1.0" standalone="no"?>
<!DOCTYPE svg PUBLIC "-//W3C//DTD SVG 20010904//EN"
 "http://www.w3.org/TR/2001/REC-SVG-20010904/DTD/svg10.dtd">
<svg version="1.0" xmlns="http://www.w3.org/2000/svg"
 width="297.000000pt" height="297.000000pt" viewBox="0 0 297.000000 297.000000"
 preserveAspectRatio="xMidYMid meet">
<metadata>
Created by potrace 1.14, written by Peter Selinger 2001-2017
</metadata>
<g transform="translate(0.000000,297.000000) scale(0.100000,-0.100000)"
fill="#000000" stroke="none">
<path d="M320 2927 c22 -22 53 -68 69 -101 43 -91 57 -148 77 -306 2 -14 4
-412 4 -885 1 -802 2 -866 20 -945 77 -351 262 -573 546 -655 74 -21 224 -41
224 -29 0 3 -15 18 -33 34 -51 44 -111 182 -132 300 -14 79 -18 302 -18 1005
1 875 0 892 -49 1045 -68 211 -197 385 -349 475 -73 43 -206 85 -284 91 -33 3
-72 6 -87 9 -28 3 -27 3 12 -38z"/>
<path d="M2590 2959 c-117 -14 -179 -32 -271 -80 -187 -97 -327 -290 -397
-547 -29 -109 -27 -36 -36 -1377 -1 -314 -6 -588 -11 -610 -24 -132 -84 -260
-148 -317 l-30 -27 53 4 c109 9 155 17 223 42 228 82 390 264 476 533 44 138
44 141 46 1020 2 465 5 880 9 923 13 170 71 332 145 406 42 42 41 42 -59 30z"/>
</g>
</svg>
